<svg xmlns="http://www.w3.org/2000/svg" width="700" height="699.99">
    <path fill="#ffae00"
          d="M262.897 425.52q-2.664 0-5.18-.39467-2.4667-.39466-4.9827-1.1347l.444-7.104q2.368 1.036 4.8347 1.8253 2.4667.73999 4.736.73999 3.8973 0 3.8973-3.256 0-1.332-1.1347-2.2693-1.0853-.98666-2.7133-1.8747t-3.6013-1.8253q-1.924-.93734-3.552-2.22-1.628-1.332-2.7627-3.108-1.0853-1.776-1.0853-4.3413 0-2.3187.83867-4.144.83866-1.8747 2.3187-3.1573 1.5293-1.332 3.6013-2.0227 2.072-.69067 4.4893-.69067 2.368 0 4.736.296 2.368.24667 4.588.64133l-.49333 6.4627q-2.6147-.592-4.736-.98667-2.1213-.444-3.7493-.444-1.776 0-3.0587.83867-1.2827.83866-1.2827 2.664 0 1.2827 1.0853 2.2693 1.0853.93733 2.7133 1.8253t3.552 1.8747q1.924.93734 3.552 2.22 1.628 1.2827 2.7133 3.0587 1.0853 1.7267 1.0853 4.1933 0 4.6373-2.9107 7.3507-2.8613 2.7133-7.9427 2.7133zm54.931-28.959h-13.912v8.0413h11.791v5.5253h-11.791v9.2253h13.912v5.4267h-21.164v-33.695h21.164zm45.261 4.5387q0 3.256-1.5787 5.4267-1.5787 2.1213-4.5387 3.3053l8.2387 14.948h-8.4853l-6.7587-13.813h-2.664v13.813h-7.252v-33.695h11.643q5.2293 0 8.288 2.516 3.108 2.516 3.108 7.4987zm-7.104.39466q0-2.5653-1.48-3.8973-1.48-1.3813-4.1933-1.3813h-3.0093v10.113h2.8613q2.7133 0 4.2427-1.2333 1.5787-1.2333 1.5787-3.6013zm38.799-10.409v33.695h-7.2027v-33.695zm53.303 33.695h-7.8933l-2.6147-8.2387h-10.853l-2.664 8.2387h-7.1533l10.804-33.695h9.8173zm-16.231-26.541-3.996 13.172h8.6333l-3.9467-13.172zm45.015-7.1533v28.317h12.087v5.3773H469.57v-33.695zm39.933 0v33.695h-7.2027v-33.695zm23.357 29.649 15.737-23.828h-16.28v-5.8213h25.16v4.3907l-15.145 23.581h15.885v5.7227h-25.357zm68.497-24.173h-13.912v8.0413h11.791v5.5253h-11.791v9.2253h13.912v5.4267h-21.164v-33.695h21.164zm45.261 4.5387q0 3.256-1.5787 5.4267-1.5787 2.1213-4.5387 3.3053l8.2387 14.948h-8.4853l-6.7587-13.813h-2.664v13.813h-7.252v-33.695h11.643q5.2293 0 8.288 2.516 3.108 2.516 3.108 7.4987zm-7.104.39466q0-2.5653-1.48-3.8973-1.48-1.3813-4.1933-1.3813h-3.0093v10.113h2.8613q2.7133 0 4.2427-1.2333 1.5787-1.2333 1.5787-3.6013z"
          aria-label="SERIALIZER"/>
    <path fill="#ffae00"
          d="M111.648 274.48 43.697 388.06h35.865l14.166-23.648h-7.791c8.5628-14.317 17.128-28.632 25.693-42.947l21.842 36.506h28.127m-24.229-53.502 14.055 23.496 3.8887-6.5 25.693 42.947h-43.682l-14.148 23.648h100.07l-67.949-113.58m-39.723 66.438c-16.681 27.878-33.368 55.752-50.047 83.631h135.9l-17.947-30-28.159-.0527 3.8496 6.4355h-51.39l21.848-36.52z"
          aria-label="SIGIL"/>
    <path fill="#fff"
          d="M278.977 277.0835c-5.6263.16647-11.467.67778-16.542 3.319-3.9363 2.0027-6.8968 5.6263-8.392 9.7511-2.1486 5.8196-2.33 12.121-2.3399 18.257.0182 10.625-.0368 21.251.0283 31.876.16645 5.633.63332 11.45 3.0775 16.614 1.7963 3.881 5.0891 6.9957 9.0271 8.6462 5.4719 2.3306 11.531 2.6267 17.402 2.6641 15.835-.01338 31.669.02685 47.504-.02029 5.7467-.15828 11.726-.71257 16.864-3.5071 3.8394-2.0676 6.7088-5.6645 8.1926-9.7346 2.2629-6.1156 2.3683-12.744 2.3523-19.186-.0183-10.259.0371-20.519-.0286-30.778-.17738-5.7659-.70521-11.736-3.3464-16.964-1.9559-3.9286-5.459-6.983-9.5403-8.5528-6.0313-2.367-12.629-2.43-19.017-2.4062-15.08.0141-30.161-.02836-45.241.02148zm102.12 1.9785v89.148c25.554-.0096 51.108.0192 76.661-.0144 5.5984-.11496 11.382-.56024 16.52-2.975 4.0131-1.8395 7.1979-5.2797 8.8488-9.3608 2.2074-5.3366 2.5755-11.205 2.6602-16.915.007-11.249.0298-22.499-.012-33.748-.16414-5.7207-.64173-11.635-3.1669-16.863-1.8774-3.9636-5.314-7.0968-9.3745-8.7229-5.7472-2.3493-12.071-2.5513-18.197-2.5487h-73.94v2zm130.03 0v89.148h21.1v-91.148h-21.1zm46.553 0v89.148h20.34v-61.236c19.526 20.412 39.053 40.824 58.578 61.236h19.703v-91.148h-20.467v60.064c-18.976-20.022-37.952-40.042-56.928-60.064h-21.227v2zm-276.72 19.229c15.605.01082 31.211-.02163 46.815.0162 2.087.10566 4.5737.30078 5.9072 2.144 1.4108 2.2542 1.3334 5.0415 1.373 7.6059-.0162 10.455.0325 20.911-.0244 31.365-.13048 2.0966-.19965 4.4742-1.6951 6.1112-1.6333 1.479-4.0021 1.4909-6.082 1.5721-15.756-.00063-31.514.02166-47.27-.01112-1.9767-.1048-4.26-.18797-5.7229-1.7086-1.426-1.7704-1.4564-4.1889-1.5665-6.356-.0193-10.84-.0228-21.681.002-32.52.10955-2.229.19474-4.7265 1.7223-6.5052 1.6355-1.5922 4.0969-1.6445 6.2418-1.7105.0998-.0007.19949-.002.29924-.0024zm175.46 0c2.1756.04954 4.6415.07008 6.3647 1.5912 1.6141 1.6581 1.7601 4.1365 1.8898 6.3236.051 10.727.0119 21.456.0196 32.184-.008.62851-.0162 1.1073-.0498 1.6328-.16531 2.0362-.35253 4.4106-2.0466 5.8035-2.0332 1.3762-4.6259 1.249-6.9758 1.2832h-53.298v-48.818h54.096z"
          aria-label="ODIN"/>
</svg>